<svg width="30" height="30" fill="none" xmlns="http://www.w3.org/2000/svg"><path d="M2.477 16.375a.402.402 0 1 0 0 .803h.005a.397.397 0 0 0 .399-.402.404.404 0 0 0-.404-.4Zm0 0v.05-.05ZM4.01 26.598a.57.57 0 1 0 0-1.14.57.57 0 0 0 0 1.14Zm21.004-.846h-.852a.401.401 0 1 0 0 .803h.852a.402.402 0 1 0 0-.803Zm3.149-9.689h-7.15a.402.402 0 0 0-.4.401v2.085a.401.401 0 1 0 .802 0v-1.683h6.347v7.933h-6.347v-3.907a.402.402 0 1 0-.803 0V25.2a.402.402 0 0 0 .402.402h7.15a.402.402 0 0 0 .4-.402v-8.736a.401.401 0 0 0-.4-.401Zm-15.149 1.611a.884.884 0 0 0 .884.883.882.882 0 1 0-.883-.883Zm.515 3.696h-.023a.402.402 0 1 0 0 .803h.023a.401.401 0 1 0 0-.804Z" fill="#A72C93" stroke="#A72C93" stroke-width=".1"/><mask id="a" maskUnits="userSpaceOnUse" x="-.707" y="1.344" width="31" height="27" fill="#000"><path fill="#fff" d="M-.707 1.344h31v27h-31z"/><path d="M28.561 14.802h-3.257V3.66a1.316 1.316 0 0 0-1.315-1.315H4.094A1.316 1.316 0 0 0 2.78 3.659v11.07H1.542a1.25 1.25 0 0 0-1.249 1.248v10.43a1.25 1.25 0 0 0 1.249 1.25h4.934a1.25 1.25 0 0 0 1.25-1.25v-6.696h3.17v1.097a.613.613 0 0 1-.611.612 1.799 1.799 0 0 0-1.797 1.796.351.351 0 0 0 .352.352h10.116a.352.352 0 0 0 .352-.352 1.799 1.799 0 0 0-1.749-1.796h-.048a.612.612 0 0 1-.612-.612v-1.097h2.572v6.8a1.147 1.147 0 0 0 1.146 1.145h7.944a1.147 1.147 0 0 0 1.146-1.145V15.947a1.147 1.147 0 0 0-1.146-1.146ZM7.022 26.408a.546.546 0 0 1-.546.545H1.542a.546.546 0 0 1-.546-.545v-1.19h6.026v1.19Zm0-9.983H3.509a.352.352 0 1 0 0 .703h3.513v7.387H.996v-7.387h.47a.351.351 0 1 0 0-.703h-.47v-.448a.546.546 0 0 1 .546-.545h4.934a.547.547 0 0 1 .546.545v.448Zm10.49 5.698a1.096 1.096 0 0 1 1.035.741H9.249a1.096 1.096 0 0 1 1.036-.741 1.317 1.317 0 0 0 1.315-1.315V19.71h4.596v1.097c0 .213.052.423.152.611H14.73a.352.352 0 0 0 0 .704h2.78Zm2.003-6.487h-8.198a.351.351 0 1 0 0 .703h8.154v2.669H7.725V16.34h1.248a.351.351 0 1 0 0-.704H7.677a1.25 1.25 0 0 0-1.2-.907H3.481V3.659a.613.613 0 0 1 .612-.612H23.99a.613.613 0 0 1 .612.612v11.143h-3.984a1.148 1.148 0 0 0-1.102.834Zm9.489 10.875a.443.443 0 0 1-.443.442h-7.944a.443.443 0 0 1-.443-.442V15.947a.444.444 0 0 1 .443-.443h7.944a.443.443 0 0 1 .443.443V26.51Z"/></mask><path d="M28.561 14.802h-3.257V3.66a1.316 1.316 0 0 0-1.315-1.315H4.094A1.316 1.316 0 0 0 2.78 3.659v11.07H1.542a1.25 1.25 0 0 0-1.249 1.248v10.43a1.25 1.25 0 0 0 1.249 1.25h4.934a1.25 1.25 0 0 0 1.25-1.25v-6.696h3.17v1.097a.613.613 0 0 1-.611.612 1.799 1.799 0 0 0-1.797 1.796.351.351 0 0 0 .352.352h10.116a.352.352 0 0 0 .352-.352 1.799 1.799 0 0 0-1.749-1.796h-.048a.612.612 0 0 1-.612-.612v-1.097h2.572v6.8a1.147 1.147 0 0 0 1.146 1.145h7.944a1.147 1.147 0 0 0 1.146-1.145V15.947a1.147 1.147 0 0 0-1.146-1.146ZM7.022 26.408a.546.546 0 0 1-.546.545H1.542a.546.546 0 0 1-.546-.545v-1.19h6.026v1.19Zm0-9.983H3.509a.352.352 0 1 0 0 .703h3.513v7.387H.996v-7.387h.47a.351.351 0 1 0 0-.703h-.47v-.448a.546.546 0 0 1 .546-.545h4.934a.547.547 0 0 1 .546.545v.448Zm10.49 5.698a1.096 1.096 0 0 1 1.035.741H9.249a1.096 1.096 0 0 1 1.036-.741 1.317 1.317 0 0 0 1.315-1.315V19.71h4.596v1.097c0 .213.052.423.152.611H14.73a.352.352 0 0 0 0 .704h2.78Zm2.003-6.487h-8.198a.351.351 0 1 0 0 .703h8.154v2.669H7.725V16.34h1.248a.351.351 0 1 0 0-.704H7.677a1.25 1.25 0 0 0-1.2-.907H3.481V3.659a.613.613 0 0 1 .612-.612H23.99a.613.613 0 0 1 .612.612v11.143h-3.984a1.148 1.148 0 0 0-1.102.834Zm9.489 10.875a.443.443 0 0 1-.443.442h-7.944a.443.443 0 0 1-.443-.442V15.947a.444.444 0 0 1 .443-.443h7.944a.443.443 0 0 1 .443.443V26.51Z" fill="#A72C93"/><path d="M28.561 14.802h-3.257V3.66a1.316 1.316 0 0 0-1.315-1.315H4.094A1.316 1.316 0 0 0 2.78 3.659v11.07H1.542a1.25 1.25 0 0 0-1.249 1.248v10.43a1.25 1.25 0 0 0 1.249 1.25h4.934a1.25 1.25 0 0 0 1.25-1.25v-6.696h3.17v1.097a.613.613 0 0 1-.611.612 1.799 1.799 0 0 0-1.797 1.796.351.351 0 0 0 .352.352h10.116a.352.352 0 0 0 .352-.352 1.799 1.799 0 0 0-1.749-1.796h-.048a.612.612 0 0 1-.612-.612v-1.097h2.572v6.8a1.147 1.147 0 0 0 1.146 1.145h7.944a1.147 1.147 0 0 0 1.146-1.145V15.947a1.147 1.147 0 0 0-1.146-1.146ZM7.022 26.408a.546.546 0 0 1-.546.545H1.542a.546.546 0 0 1-.546-.545v-1.19h6.026v1.19Zm0-9.983H3.509a.352.352 0 1 0 0 .703h3.513v7.387H.996v-7.387h.47a.351.351 0 1 0 0-.703h-.47v-.448a.546.546 0 0 1 .546-.545h4.934a.547.547 0 0 1 .546.545v.448Zm10.49 5.698a1.096 1.096 0 0 1 1.035.741H9.249a1.096 1.096 0 0 1 1.036-.741 1.317 1.317 0 0 0 1.315-1.315V19.71h4.596v1.097c0 .213.052.423.152.611H14.73a.352.352 0 0 0 0 .704h2.78Zm2.003-6.487h-8.198a.351.351 0 1 0 0 .703h8.154v2.669H7.725V16.34h1.248a.351.351 0 1 0 0-.704H7.677a1.25 1.25 0 0 0-1.2-.907H3.481V3.659a.613.613 0 0 1 .612-.612H23.99a.613.613 0 0 1 .612.612v11.143h-3.984a1.148 1.148 0 0 0-1.102.834Zm9.489 10.875a.443.443 0 0 1-.443.442h-7.944a.443.443 0 0 1-.443-.442V15.947a.444.444 0 0 1 .443-.443h7.944a.443.443 0 0 1 .443.443V26.51Z" stroke="#A72C93" stroke-width=".2" mask="url(#a)"/></svg>