<svg width="30" height="30" fill="none" xmlns="http://www.w3.org/2000/svg"><g clip-path="url(#a)" fill="#A72C93" stroke="#A72C93" stroke-width=".2"><path d="M17.347 20.097H12.65a1.48 1.48 0 0 0-1.479 1.479v3.757a1.48 1.48 0 0 0 1.48 1.479h4.696a1.48 1.48 0 0 0 1.48-1.479v-3.757a1.48 1.48 0 0 0-1.48-1.48Zm.4 5.236a.4.4 0 0 1-.4.4H12.65a.4.4 0 0 1-.4-.4v-3.757c0-.22.18-.4.4-.4h4.697c.22 0 .4.18.4.4v3.757Zm7.586-10.873h-6.575a.54.54 0 0 0 0 1.08h6.575a.4.4 0 0 1 .4.4v2.818a.54.54 0 0 0 1.08 0v-2.819a1.48 1.48 0 0 0-1.48-1.479Zm-6.506-7.445a3.832 3.832 0 0 0-3.828-3.827 3.832 3.832 0 0 0-3.827 3.827 3.832 3.832 0 0 0 3.288 3.789v3.656H4.666a1.48 1.48 0 0 0-1.479 1.48v2.818a.54.54 0 1 0 1.079 0v-2.819c0-.22.18-.4.4-.4h9.794v3.219a.54.54 0 1 0 1.079 0v-3.219h1.339a.54.54 0 0 0 0-1.079h-1.34v-3.656a3.832 3.832 0 0 0 3.289-3.789Zm-3.828 2.749a2.752 2.752 0 0 1-2.748-2.749 2.752 2.752 0 0 1 2.748-2.748 2.752 2.752 0 0 1 2.749 2.748 2.752 2.752 0 0 1-2.749 2.749ZM28.62 20.097h-4.696a1.48 1.48 0 0 0-1.48 1.479v3.757a1.48 1.48 0 0 0 1.48 1.479h4.697a1.48 1.48 0 0 0 1.479-1.479v-3.757a1.48 1.48 0 0 0-1.48-1.48Zm.4 5.236a.4.4 0 0 1-.4.4h-4.696a.4.4 0 0 1-.4-.4v-3.757c0-.22.18-.4.4-.4h4.697c.22 0 .4.18.4.4v3.757ZM6.076 20.097H1.379A1.48 1.48 0 0 0-.1 21.576v3.757a1.48 1.48 0 0 0 1.479 1.479h.47a.54.54 0 1 0 0-1.079h-.47a.4.4 0 0 1-.4-.4v-3.757c0-.22.18-.4.4-.4h4.697c.22 0 .4.18.4.4v3.757a.4.4 0 0 1-.4.4H3.727a.54.54 0 0 0 0 1.079h2.349a1.48 1.48 0 0 0 1.479-1.479v-3.757a1.48 1.48 0 0 0-1.48-1.48Z"/></g><defs><clipPath id="a"><path fill="#fff" d="M0 0h30v30H0z"/></clipPath></defs></svg>