<svg width="15" height="15" fill="none" xmlns="http://www.w3.org/2000/svg"><g clip-path="url(#a)"><path d="M.747 14.904A.326.326 0 0 0 .978 15h5.87c.086 0 .17-.034.23-.095m-6.331 0 .23-.231h.001l.123-.123a.174.174 0 0 1 0 .246l.297-.297m-.651.404a.326.326 0 0 1 0-.461l.231.057m-.231.404.23-.23h.001l.123-.123a.174.174 0 0 0-.123-.051m.42 0h5.378m-5.378 0 6.647-6.646.353-.354-.353-.354L1.398.5h5.378l7 7-7 7m-5.378 0h5.45m-.072 0-.05.05m.05-.05h.072m-.122.05v.001l.122.123.23.23m-.352-.353a.174.174 0 0 1 .122-.051m-.122.05.122.123v.001l.23.23m0 0-.23-.404m0 0Zm-5.87 0Zm0-14Zm5.87 0Z" fill="#fff"/></g><defs><clipPath id="a"><path fill="#fff" d="M0 0h15v15H0z"/></clipPath></defs></svg>