<svg width="55" height="55" fill="none" xmlns="http://www.w3.org/2000/svg"><circle cx="27.5" cy="27.5" r="26.5" fill="#A72C93" stroke="#C583BB" stroke-width="2"/><path d="M26.42 13a.547.547 0 0 0-.546.547v3.372a.547.547 0 0 0 1.094 0v-3.372A.547.547 0 0 0 26.42 13Zm7.178 7.179h-3.372a.547.547 0 1 0 0 1.094h3.372a.547.547 0 0 0 0-1.094Zm-10.982-.002h-3.373a.547.547 0 1 0 0 1.094h3.373a.547.547 0 0 0 0-1.094Zm1.1-2.931-1.592-1.593a.547.547 0 0 0-.773.774l1.592 1.592a.545.545 0 0 0 .773 0 .547.547 0 0 0 0-.773Zm7.776-1.592a.547.547 0 0 0-.774 0l-1.592 1.593a.547.547 0 0 0 .773.773l1.593-1.592a.547.547 0 0 0 0-.774Z" fill="#fff"/><path d="M35.28 25.453c-.369 0-.715.1-1.013.273a2.027 2.027 0 0 0-1.94-1.448c-.582 0-1.107.247-1.476.642a2.018 2.018 0 0 0-2.407-.415v-3.78a2.026 2.026 0 0 0-2.023-2.024 2.026 2.026 0 0 0-2.023 2.024v2.883a.547.547 0 1 0 1.093 0v-2.883a.93.93 0 0 1 1.86 0v9.155a.547.547 0 1 0 1.093 0v-3.578a.93.93 0 0 1 1.86 0v3.577a.547.547 0 1 0 1.094 0v-3.577a.93.93 0 0 1 1.859 0v3.578a.547.547 0 0 0 1.094 0v-2.404a.93.93 0 0 1 1.859 0v5.719c0 .407-.037.815-.11 1.212a.547.547 0 1 0 1.077.196 7.87 7.87 0 0 0 .127-1.408v-5.72a2.026 2.026 0 0 0-2.024-2.022Z" fill="#fff"/><path d="M34.85 38.13a.547.547 0 0 0-.773-.027 6.688 6.688 0 0 1-4.578 1.803 6.748 6.748 0 0 1-6.043-3.792l-2.52-5.216a1.007 1.007 0 0 1 .403-1.305 1.01 1.01 0 0 1 1.358.346l1.781 2.924a.547.547 0 0 0 1.014-.285v-5.36a.547.547 0 1 0-1.094 0v3.412l-.767-1.26a2.084 2.084 0 0 0-2.84-.724 2.105 2.105 0 0 0-.839 2.727l2.52 5.216a7.796 7.796 0 0 0 2.879 3.217A7.796 7.796 0 0 0 29.499 41a7.778 7.778 0 0 0 5.324-2.097.547.547 0 0 0 .026-.773Zm1.414-1.855a.551.551 0 0 0-.387-.16.551.551 0 0 0-.547.547.55.55 0 0 0 .547.547.551.551 0 0 0 .547-.547.551.551 0 0 0-.16-.387ZM25.331 25.082a.551.551 0 0 0-.933.387.551.551 0 0 0 .546.547.551.551 0 0 0 .547-.547.551.551 0 0 0-.16-.387Z" fill="#fff"/></svg>