<svg width="25" height="33" fill="none" xmlns="http://www.w3.org/2000/svg"><g clip-path="url(#a)"><path d="m24.99 8.701-6.746-1.933L16.316 0H2.824a2.896 2.896 0 0 0-2.89 2.9v27.2c0 1.601 1.294 2.9 2.89 2.9H22.1a2.896 2.896 0 0 0 2.89-2.9V8.7Z" fill="#5CB054"/><path d="M24.99 8.701h-6.746c-1.06 0-1.928-.87-1.928-1.933V0c.25 0 .501.097.675.29l7.71 7.734a.912.912 0 0 1 .289.677Z" fill="#86CB84"/><path d="M18.833 19H7.167C6.522 19 6 18.553 6 18c0-.553.522-1 1.167-1h11.666c.645 0 1.167.447 1.167 1 0 .553-.522 1-1.167 1Zm0-4H7.167C6.522 15 6 14.553 6 14c0-.553.522-1 1.167-1h11.666c.645 0 1.167.447 1.167 1 0 .553-.522 1-1.167 1Zm0 8H7.167C6.522 23 6 22.553 6 22c0-.553.522-1 1.167-1h11.666c.645 0 1.167.447 1.167 1 0 .553-.522 1-1.167 1Zm0 4H7.167C6.522 27 6 26.553 6 26c0-.553.522-1 1.167-1h11.666c.645 0 1.167.447 1.167 1 0 .553-.522 1-1.167 1Z" fill="#FFF5F5"/><path d="M6 25.833V14.167C6 13.522 6.447 13 7 13c.553 0 1 .522 1 1.167v11.666C8 26.478 7.553 27 7 27c-.553 0-1-.522-1-1.167Zm6 0V14.167c0-.645.447-1.167 1-1.167.553 0 1 .522 1 1.167v11.666c0 .645-.447 1.167-1 1.167-.553 0-1-.522-1-1.167Zm6 0V14.167c0-.645.447-1.167 1-1.167.553 0 1 .522 1 1.167v11.666c0 .645-.447 1.167-1 1.167-.553 0-1-.522-1-1.167Z" fill="#FFF5F5"/></g><defs><clipPath id="a"><path fill="#fff" d="M0 0h25v33H0z"/></clipPath></defs></svg>