<svg width="27" height="33" fill="none" xmlns="http://www.w3.org/2000/svg"><path d="m26.068 8.701-6.767-1.933L17.367 0H3.832a2.9 2.9 0 0 0-2.9 2.9v27.2a2.9 2.9 0 0 0 2.9 2.9h19.336a2.9 2.9 0 0 0 2.9-2.9V8.7Z" fill="#734BBD"/><path d="M5.766 17.467a.967.967 0 1 0 0-1.934.967.967 0 0 0 0 1.934Zm0 3.867a.967.967 0 1 0 0-1.934.967.967 0 0 0 0 1.934Zm0 3.867a.967.967 0 1 0 0-1.933.967.967 0 0 0 0 1.933ZM19.3 17.467H9.634a.966.966 0 1 1 0-1.934H19.3a.966.966 0 1 1 0 1.934Zm0 3.867H9.634a.966.966 0 1 1 0-1.934H19.3a.966.966 0 1 1 0 1.934Zm0 3.867H9.634a.966.966 0 1 1 0-1.933H19.3a.966.966 0 1 1 0 1.933Z" fill="#FFF5F5"/><path d="M26.068 8.701h-6.767a1.94 1.94 0 0 1-1.934-1.933V0c.252 0 .503.097.677.29l7.734 7.734c.194.174.29.426.29.677Z" fill="#9B7ED0"/></svg>