<svg width="30" height="30" fill="none" xmlns="http://www.w3.org/2000/svg"><g clip-path="url(#a)" fill="#A72C93"><path d="M27.894 12.919h-1.915V2.805A2.108 2.108 0 0 0 23.874.699h-13.11a.586.586 0 1 0 0 1.172h13.11c.514 0 .933.419.933.934v7.36l-3.114-2.22a.586.586 0 0 0-.694.01l-3.445 2.612-5.477-4.564a.586.586 0 0 0-.744-.005l-6.654 5.395V2.805c0-.514.417-.933.931-.934a.586.586 0 0 0 0-1.172h-.002a2.11 2.11 0 0 0-2.1 2.106v11.236c0 1.161.944 2.106 2.106 2.106h6.757v1.688H2.106A2.108 2.108 0 0 0 0 19.94v7.254C0 28.356.945 29.3 2.106 29.3h11.148a2.108 2.108 0 0 0 2.106-2.106v-2.073h7.296a.586.586 0 1 0 0-1.172H15.36v-4.01a2.129 2.129 0 0 0-1.818-2.085v-2.83c0-.515.42-.934.934-.934h13.418c.515 0 .934.419.934.934v7.99c0 .515-.42.935-.934.935h-.086a.586.586 0 1 0 0 1.172h.086A2.109 2.109 0 0 0 30 23.015v-7.99a2.109 2.109 0 0 0-2.106-2.106ZM14.188 27.195a.935.935 0 0 1-.934.934H2.106a.935.935 0 0 1-.934-.934v-7.254c0-.515.419-.934.934-.934h10.849c.238 0 .475-.016.696.089a.943.943 0 0 1 .537.845v7.254Zm.288-14.276a2.13 2.13 0 0 0-2.105 2.056H5.613a.935.935 0 0 1-.934-.934V12.9l7.018-5.69 6.848 5.708h-4.069Zm5.9 0-1.898-1.582 2.886-2.187 3.443 2.454v1.315h-4.431Z"/><path d="M8.02 1.826c.237.099.52.026.68-.175a.592.592 0 0 0 .046-.667C8.478.533 7.772.657 7.67 1.17a.592.592 0 0 0 .35.656ZM19.495 22.87h1.671c.255 0 .48-.165.558-.407l.594-1.846 2.573.41a.585.585 0 0 0 .678-.579v-1.896h.113a.586.586 0 1 0 0-1.172h-.113v-1.623a.586.586 0 0 0-.678-.579l-5.442.867h-1.483c-.7 0-1.27.57-1.27 1.27v1.574c0 .701.57 1.27 1.27 1.27h.943v2.125c0 .323.263.586.586.586Zm1.245-1.172h-.659V20.26l.116.018.95.151-.407 1.268Zm3.658-1.936-4.317-.688v-1.943l4.317-.688v3.319Zm-6.53-.873v-1.573a.1.1 0 0 1 .098-.1h.943v1.772h-.943a.099.099 0 0 1-.099-.099Zm7.673 5.16a.592.592 0 0 0-.685.025.59.59 0 0 0-.196.645c.17.518.924.527 1.107.014a.59.59 0 0 0-.226-.684Zm-15.514-1.147-3.574-1.918a.592.592 0 0 0-.863.517v4.093a.59.59 0 0 0 .89.5l3.575-2.175a.586.586 0 0 0-.027-1.017Zm-3.265 1.65V22.48l1.809.97-1.81 1.102ZM19.546 5.148a2.013 2.013 0 0 0-2.011-2.011c-1.11 0-2.012.902-2.012 2.011 0 1.11.903 2.012 2.012 2.012s2.011-.903 2.011-2.012Zm-2.85 0a.84.84 0 0 1 1.678 0 .84.84 0 0 1-1.679 0Z"/></g><defs><clipPath id="a"><path fill="#fff" d="M0 0h30v30H0z"/></clipPath></defs></svg>