<svg width="16" height="16" fill="none" xmlns="http://www.w3.org/2000/svg"><path d="M10.597 7.702A.667.667 0 0 0 10 7.333H8.667V.667a.666.666 0 1 0-1.333 0v6.666H6A.667.667 0 0 0 5.467 8.4l2 2.667c.009.011.022.015.031.026a.652.652 0 0 0 .154.128c.024.015.043.034.07.046.084.04.178.066.278.066a.66.66 0 0 0 .28-.066c.026-.012.045-.031.068-.046a.652.652 0 0 0 .154-.128c.01-.011.023-.015.032-.026l2-2.667a.666.666 0 0 0 .063-.698Z" fill="#fff"/><path d="M15.333 10a.666.666 0 0 0-.666.667v2c0 1.102-.898 2-2 2H3.333c-1.102 0-2-.898-2-2v-2a.667.667 0 1 0-1.333 0v2A3.337 3.337 0 0 0 3.333 16h9.334A3.337 3.337 0 0 0 16 12.667v-2a.667.667 0 0 0-.667-.667Z" fill="#fff"/></svg>