<svg width="25" height="33" fill="none" xmlns="http://www.w3.org/2000/svg"><g clip-path="url(#a)"><path d="m24.99 8.701-6.746-1.933L16.316 0H2.824A2.896 2.896 0 0 0-.067 2.9v27.2c0 1.601 1.294 2.9 2.891 2.9h19.274a2.896 2.896 0 0 0 2.892-2.9V8.7Z" fill="#FABE2C"/><path d="M24.99 8.701h-6.746c-1.06 0-1.928-.87-1.928-1.933V0c.25 0 .501.097.675.29l7.71 7.734a.912.912 0 0 1 .289.677Z" fill="#FDD929"/><path d="M18.244 26.168H6.679a.965.965 0 0 1-.964-.967v-9.668c0-.534.431-.967.964-.967h11.565c.532 0 .963.433.963.967v9.668a.965.965 0 0 1-.963.967Zm-10.601-2.9h9.637v-5.801H7.643v5.8Z" fill="#FFF5F5"/></g><defs><clipPath id="a"><path fill="#fff" d="M0 0h25v33H0z"/></clipPath></defs></svg>