<svg width="30" height="27" fill="none" xmlns="http://www.w3.org/2000/svg"><path d="m3.563 22.49 11.11-9.633.327-.284.328.284 11.108 9.632c.002.002.015.011.042.011a.101.101 0 0 0 .022-.002v-8.053L15.042 4.51c-.002-.002-.016-.01-.042-.01a.073.073 0 0 0-.041.01l-.004.004L3.5 14.444l.063 8.046Zm0 0-.01.005m.01-.005-.01.005m0 0a.092.092 0 0 1-.031.005l.03-.005Zm22.556.372L15 13.235l11.109 9.632Zm0 0a.58.58 0 0 0 .738 0m-.738 0h.738m0 0a.424.424 0 0 0 .153-.32l-.153.32Zm-.347-.32Z" fill="#fff" stroke="#fff"/></svg>