<svg width="55" height="55" fill="none" xmlns="http://www.w3.org/2000/svg"><circle cx="27.5" cy="27.5" r="26.5" fill="#A72C93" stroke="#C583BB" stroke-width="2"/><path d="m36.468 19.777-4.632-4.631a.498.498 0 0 0-.352-.146h-12.6a.498.498 0 0 0-.497.498v24.004c0 .275.223.498.498.498h17.23a.498.498 0 0 0 .499-.498V20.129a.498.498 0 0 0-.146-.352ZM31.982 16.7l2.931 2.931h-2.93v-2.93Zm3.636 22.304H19.383V15.996h11.603v4.133c0 .275.223.498.498.498h4.134v18.377Z" fill="#fff"/><path d="M21.897 23.665h8.243a.498.498 0 1 0 0-.996h-8.243a.498.498 0 0 0 0 .996Zm11.206 2.291H21.897a.498.498 0 0 0 0 .996h11.206a.498.498 0 1 0 0-.996Zm0 3.287H21.897a.498.498 0 0 0 0 .996h11.206a.498.498 0 1 0 0-.996Zm0 3.287H21.897a.498.498 0 1 0 0 .996h11.206a.498.498 0 0 0 0-.996Zm-1.096-8.865h1.095a.498.498 0 1 0 0-.996h-1.095a.498.498 0 0 0 0 .996Z" fill="#fff"/></svg>