<svg width="18" height="18" fill="none" xmlns="http://www.w3.org/2000/svg"><path d="M9.202 4.688A4.505 4.505 0 0 0 4.69 9.2a4.505 4.505 0 0 0 4.512 4.512A4.505 4.505 0 0 0 13.713 9.2a4.505 4.505 0 0 0-4.511-4.512Zm0 7.446A2.939 2.939 0 0 1 6.269 9.2a2.936 2.936 0 0 1 2.933-2.934A2.936 2.936 0 0 1 12.135 9.2a2.939 2.939 0 0 1-2.933 2.934Zm5.748-7.631a1.05 1.05 0 0 1-1.052 1.053 1.052 1.052 0 1 1 1.052-1.053Zm2.988 1.068c-.067-1.41-.389-2.659-1.421-3.687C15.488.854 14.239.533 12.83.462c-1.453-.083-5.807-.083-7.26 0C4.164.529 2.916.85 1.883 1.88S.533 4.157.462 5.567c-.083 1.453-.083 5.809 0 7.262.067 1.41.388 2.659 1.421 3.688 1.033 1.028 2.277 1.35 3.687 1.421 1.453.083 5.807.083 7.26 0 1.41-.067 2.658-.389 3.687-1.421 1.029-1.03 1.35-2.278 1.421-3.688.082-1.453.082-5.805 0-7.258Zm-1.877 8.817a2.97 2.97 0 0 1-1.672 1.673c-1.159.46-3.907.353-5.187.353-1.28 0-4.032.102-5.187-.353a2.97 2.97 0 0 1-1.672-1.673c-.46-1.159-.354-3.908-.354-5.188 0-1.28-.102-4.033.354-5.188A2.97 2.97 0 0 1 4.015 2.34c1.158-.46 3.907-.353 5.187-.353 1.28 0 4.032-.102 5.187.353.77.306 1.362.9 1.672 1.673.46 1.159.354 3.908.354 5.188 0 1.28.106 4.033-.354 5.188Z" fill="#fff" fill-opacity=".23"/></svg>