<svg width="98" height="73" fill="none" xmlns="http://www.w3.org/2000/svg"><path fill-rule="evenodd" clip-rule="evenodd" d="M4.001 7.316c-.063-2.172.97-3.625 3.046-4.276A8.595 8.595 0 0 1 8.83 2.7c3.631-.333 9.117.946 15.865 3.684a92.897 92.897 0 0 1 2.684 1.137l-1.524-2.015C18.851 2.42 12.936.655 8.613.342A17.246 17.246 0 0 0 6.622.305c-.212.01-.42.023-.62.042C1.611.75-.04 3.337 1.263 7.765l.013.044c.23.773.549 1.595.952 2.463 1.903 4.1 5.699 9.21 11.079 14.884.484.511.98 1.025 1.486 1.541 6.329 6.454 14.33 13.285 23.108 19.717l.156.114c8.865 6.486 18.126 12.276 26.713 16.711.55.284 1.097.562 1.641.835 7.64 3.829 14.379 6.375 19.605 7.426.993.2 1.93.345 2.81.435.968.099 1.856.13 2.664.094 3.789-.167 5.79-1.805 5.784-4.793-.002-.813-.152-1.718-.446-2.706-1.017-3.416-3.757-7.828-8.039-12.902l-2.61-1.016a75.572 75.572 0 0 1 2.028 2.511c3.773 4.895 5.81 8.993 5.896 11.896l.002.176c.004 2.087-1.04 3.47-3.046 4.1a8.834 8.834 0 0 1-2 .357c-.847.062-1.797.04-2.847-.067-4.81-.493-11.502-2.762-19.29-6.53-.545-.265-1.095-.536-1.651-.815-8.493-4.256-17.78-10.008-26.637-16.499l-.156-.114C29.683 39.169 21.73 32.288 15.655 25.88c-.5-.528-.986-1.051-1.457-1.568C8.92 18.516 5.523 13.43 4.404 9.632c-.248-.845-.382-1.617-.403-2.316Z" fill="url(#a)"/><defs><linearGradient id="a" x1="2.066" y1="-27.556" x2="105.093" y2="65.855" gradientUnits="userSpaceOnUse"><stop stop-color="#fff" stop-opacity="0"/><stop offset=".474" stop-color="#fff"/><stop offset="1" stop-color="#fff" stop-opacity="0"/></linearGradient></defs></svg>