<svg width="34" height="34" fill="none" xmlns="http://www.w3.org/2000/svg"><path d="M27.183 5.117a.997.997 0 0 0-.618-.439l-7.351-1.653c-.299-.06-.598.02-.837.199a.982.982 0 0 0-.378.777v20.021H3.655c-.558 0-.996.498-.996 1.056a1 1 0 0 0 .777.976l4.781 1.076 12.71 4.821 3.188-4.741 2.849-19.723.358-1.613c.06-.26 0-.538-.14-.757ZM6.973 0c-.26 0-.518.1-.698.299L.3 6.275a.935.935 0 0 0-.3.698l9.034 1.992L6.973 0Z" fill="url(#a)"/><path d="M33.936 11.252a.955.955 0 0 0-.498-.577l-6.474-3.188-4.841 21.715a.998.998 0 0 1-.439.618 1.042 1.042 0 0 1-.757.14l-12.71-2.83 13.766 6.774c.584.25 1.114-.017 1.335-.459L33.896 12.01a.913.913 0 0 0 .04-.757ZM19.991 25.02V.996A.986.986 0 0 0 18.995 0H6.973v5.977c0 .55-.446.996-.996.996H0v18.046c0 .557.438.996.996.996h17.999a.986.986 0 0 0 .996-.996Z" fill="url(#b)"/><defs><linearGradient id="a" x1="13.673" y1="31.951" x2="13.673" y2="0" gradientUnits="userSpaceOnUse"><stop stop-color="#A72C93"/><stop offset=".997" stop-color="#F0FFF4"/></linearGradient><linearGradient id="b" x1="3.234" y1="-4.342" x2="19.864" y2="34" gradientUnits="userSpaceOnUse"><stop stop-color="#A72C93"/><stop offset="1" stop-color="#A72C93"/></linearGradient></defs></svg>