<svg width="55" height="55" viewBox="0 0 55 55" fill="none" xmlns="http://www.w3.org/2000/svg">
<circle cx="27.5" cy="27.5" r="26.5" fill="#A72C93" stroke="#C583BB" stroke-width="2"/>
<path d="M36.4679 19.7773L31.8365 15.1459C31.743 15.0525 31.6164 15 31.4843 15H18.8847C18.6097 15 18.3867 15.223 18.3867 15.498V39.502C18.3867 39.777 18.6097 40 18.8847 40H36.1158C36.3908 40 36.6138 39.777 36.6138 39.502V20.1295C36.6138 19.9974 36.5613 19.8707 36.4679 19.7773ZM31.9823 16.7003L34.9135 19.6315H31.9823V16.7003ZM35.6178 39.004H19.3827V15.996H30.9863V20.1295C30.9863 20.4045 31.2093 20.6275 31.4843 20.6275H35.6178V39.004Z" fill="white"/>
<path d="M21.8974 23.6654H30.1395C30.4145 23.6654 30.6375 23.4425 30.6375 23.1674C30.6375 22.8924 30.4145 22.6694 30.1395 22.6694H21.8974C21.6224 22.6694 21.3994 22.8924 21.3994 23.1674C21.3994 23.4425 21.6224 23.6654 21.8974 23.6654Z" fill="white"/>
<path d="M33.1026 25.9563H21.8974C21.6224 25.9563 21.3994 26.1793 21.3994 26.4543C21.3994 26.7294 21.6224 26.9523 21.8974 26.9523H33.1026C33.3776 26.9523 33.6006 26.7294 33.6006 26.4543C33.6006 26.1793 33.3776 25.9563 33.1026 25.9563Z" fill="white"/>
<path d="M33.1026 29.2429H21.8974C21.6224 29.2429 21.3994 29.4659 21.3994 29.7409C21.3994 30.016 21.6224 30.2389 21.8974 30.2389H33.1026C33.3776 30.2389 33.6006 30.016 33.6006 29.7409C33.6006 29.4659 33.3776 29.2429 33.1026 29.2429Z" fill="white"/>
<path d="M33.1026 32.5298H21.8974C21.6224 32.5298 21.3994 32.7527 21.3994 33.0278C21.3994 33.3028 21.6224 33.5258 21.8974 33.5258H33.1026C33.3776 33.5258 33.6006 33.3028 33.6006 33.0278C33.6006 32.7527 33.3776 32.5298 33.1026 32.5298Z" fill="white"/>
<path d="M32.0068 23.6654H33.1024C33.3774 23.6654 33.6004 23.4425 33.6004 23.1674C33.6004 22.8924 33.3774 22.6694 33.1024 22.6694H32.0068C31.7318 22.6694 31.5088 22.8924 31.5088 23.1674C31.5088 23.4425 31.7318 23.6654 32.0068 23.6654Z" fill="white"/>
</svg>
