<svg width="34" height="34" viewBox="0 0 34 34" fill="none" xmlns="http://www.w3.org/2000/svg">
<path d="M27.1827 5.1166C27.0433 4.89739 26.8241 4.73809 26.5652 4.67825L19.214 3.02467C18.9152 2.96497 18.6163 3.04459 18.3773 3.22396C18.1383 3.40319 17.9988 3.70208 17.9988 4.00091V24.0224H3.65507C3.09732 24.0224 2.65897 24.5204 2.65897 25.0782C2.65897 25.5365 2.97779 25.9548 3.43593 26.0544L8.21724 27.1302L20.9273 31.9513L24.1148 27.2099L26.9637 7.4873L27.3223 5.87363C27.382 5.61465 27.3222 5.33568 27.1827 5.1166ZM6.97266 0C6.71367 0 6.45469 0.0996094 6.27546 0.298762L0.298895 6.27532C0.0996094 6.45469 0 6.71367 0 6.97266L9.03391 8.96484L6.97266 0Z" fill="url(#paint0_linear)"/>
<path d="M33.9362 11.2524C33.8566 10.9934 33.6773 10.7943 33.4382 10.6747L26.9636 7.4873L22.1226 29.2021C22.0627 29.4611 21.9034 29.6802 21.6842 29.8197C21.4385 29.9733 21.1358 30.0112 20.9272 29.9591L8.21718 27.1302L21.9831 33.9036C22.5668 34.1539 23.0972 33.8868 23.3178 33.4454L33.8963 12.0095C34.0159 11.7704 34.0359 11.4915 33.9362 11.2524ZM19.9909 25.0186V0.996094C19.9909 0.438215 19.5527 0 18.9948 0H6.97266V5.97656C6.97266 6.52667 6.52667 6.97266 5.97656 6.97266H0V25.0186C0 25.5763 0.438215 26.0146 0.996094 26.0146H18.9948C19.5527 26.0146 19.9909 25.5762 19.9909 25.0186Z" fill="url(#paint1_linear)"/>
<defs>
<linearGradient id="paint0_linear" x1="13.6726" y1="31.9513" x2="13.6726" y2="0" gradientUnits="userSpaceOnUse">
<stop stop-color="#A72C93"/>
<stop offset="0.9973" stop-color="#F0FFF4"/>
</linearGradient>
<linearGradient id="paint1_linear" x1="3.2337" y1="-4.34239" x2="19.8641" y2="34" gradientUnits="userSpaceOnUse">
<stop stop-color="#A72C93"/>
<stop offset="1" stop-color="#A72C93"/>
</linearGradient>
</defs>
</svg>
