<svg width="15" height="15" viewBox="0 0 15 15" fill="none" xmlns="http://www.w3.org/2000/svg">
<path d="M14.5207 13.6626L10.9507 9.94962C11.8686 8.85844 12.3715 7.48552 12.3715 6.05624C12.3715 2.71688 9.65464 0 6.31528 0C2.97592 0 0.259033 2.71688 0.259033 6.05624C0.259033 9.3956 2.97592 12.1125 6.31528 12.1125C7.56892 12.1125 8.76358 11.7344 9.78498 11.0166L13.3821 14.7578C13.5325 14.9139 13.7347 15 13.9514 15C14.1565 15 14.3511 14.9218 14.4988 14.7796C14.8127 14.4776 14.8227 13.9768 14.5207 13.6626ZM6.31528 1.57989C8.78359 1.57989 10.7916 3.58793 10.7916 6.05624C10.7916 8.52456 8.78359 10.5326 6.31528 10.5326C3.84696 10.5326 1.83892 8.52456 1.83892 6.05624C1.83892 3.58793 3.84696 1.57989 6.31528 1.57989Z" fill="black"/>
</svg>
