<svg width="27" height="33" viewBox="0 0 27 33" fill="none" xmlns="http://www.w3.org/2000/svg">
<path d="M26.0684 8.70117L19.3008 6.76758L17.3672 0H3.83203C2.23018 0 0.931641 1.29854 0.931641 2.90039V30.0996C0.931641 31.7015 2.23018 33 3.83203 33H23.168C24.7698 33 26.0684 31.7015 26.0684 30.0996V8.70117Z" fill="#734BBD"/>
<path d="M5.76562 17.4668C6.29957 17.4668 6.73242 17.0339 6.73242 16.5C6.73242 15.9661 6.29957 15.5332 5.76562 15.5332C5.23168 15.5332 4.79883 15.9661 4.79883 16.5C4.79883 17.0339 5.23168 17.4668 5.76562 17.4668Z" fill="#FFF5F5"/>
<path d="M5.76562 21.334C6.29957 21.334 6.73242 20.9011 6.73242 20.3672C6.73242 19.8332 6.29957 19.4004 5.76562 19.4004C5.23168 19.4004 4.79883 19.8332 4.79883 20.3672C4.79883 20.9011 5.23168 21.334 5.76562 21.334Z" fill="#FFF5F5"/>
<path d="M5.76562 25.2012C6.29957 25.2012 6.73242 24.7683 6.73242 24.2344C6.73242 23.7004 6.29957 23.2676 5.76562 23.2676C5.23168 23.2676 4.79883 23.7004 4.79883 24.2344C4.79883 24.7683 5.23168 25.2012 5.76562 25.2012Z" fill="#FFF5F5"/>
<path d="M19.3008 17.4668H9.63281C9.09843 17.4668 8.66602 17.0344 8.66602 16.5C8.66602 15.9656 9.09843 15.5332 9.63281 15.5332H19.3008C19.8352 15.5332 20.2676 15.9656 20.2676 16.5C20.2676 17.0344 19.8352 17.4668 19.3008 17.4668Z" fill="#FFF5F5"/>
<path d="M19.3008 21.334H9.63281C9.09843 21.334 8.66602 20.9016 8.66602 20.3672C8.66602 19.8328 9.09843 19.4004 9.63281 19.4004H19.3008C19.8352 19.4004 20.2676 19.8328 20.2676 20.3672C20.2676 20.9016 19.8352 21.334 19.3008 21.334Z" fill="#FFF5F5"/>
<path d="M19.3008 25.2012H9.63281C9.09843 25.2012 8.66602 24.7688 8.66602 24.2344C8.66602 23.7 9.09843 23.2676 9.63281 23.2676H19.3008C19.8352 23.2676 20.2676 23.7 20.2676 24.2344C20.2676 24.7688 19.8352 25.2012 19.3008 25.2012Z" fill="#FFF5F5"/>
<path d="M26.0684 8.70117H19.3008C18.2373 8.70117 17.3672 7.83105 17.3672 6.76758V0C17.6186 0 17.8699 0.0966797 18.0439 0.290104L25.7783 8.02448C25.9717 8.19844 26.0684 8.4498 26.0684 8.70117Z" fill="#9B7ED0"/>
</svg>
