<svg width="17" height="17" viewBox="0 0 17 17" fill="none" xmlns="http://www.w3.org/2000/svg">
<path d="M16.2113 0.788377C15.821 0.398015 15.1949 0.398015 14.8046 0.788377L8.49986 7.09309L2.19515 0.788377C1.80479 0.398015 1.17874 0.398015 0.788377 0.788377C0.398015 1.17874 0.398015 1.80479 0.788377 2.19515L7.09309 8.49987L0.788377 14.8046C0.398015 15.1949 0.398015 15.821 0.788377 16.2114C0.979875 16.4029 1.23766 16.506 1.48808 16.506C1.7385 16.506 1.99629 16.4102 2.18779 16.2114L8.49249 9.90664L14.7972 16.2114C14.9887 16.4029 15.2465 16.506 15.4969 16.506C15.7547 16.506 16.0051 16.4102 16.1966 16.2114C16.587 15.821 16.587 15.1949 16.1966 14.8046L9.90664 8.49987L16.2113 2.19515C16.6017 1.80479 16.6017 1.17874 16.2113 0.788377Z" fill="white"/>
</svg>
