<svg width="55" height="55" viewBox="0 0 55 55" fill="none" xmlns="http://www.w3.org/2000/svg">
<circle cx="27.5" cy="27.5" r="26.5" fill="#A72C93" stroke="#C583BB" stroke-width="2"/>
<path d="M26.4209 13C26.1189 13 25.874 13.2448 25.874 13.5469V16.9193C25.874 17.2213 26.1189 17.4662 26.4209 17.4662C26.7229 17.4662 26.9678 17.2213 26.9678 16.9193V13.5469C26.9678 13.2448 26.7229 13 26.4209 13Z" fill="white"/>
<path d="M33.598 20.1787H30.2256C29.9235 20.1787 29.6787 20.4235 29.6787 20.7256C29.6787 21.0276 29.9235 21.2725 30.2256 21.2725H33.598C33.9 21.2725 34.1449 21.0276 34.1449 20.7256C34.1449 20.4235 33.9 20.1787 33.598 20.1787Z" fill="white"/>
<path d="M22.6155 20.177H19.2432C18.9411 20.177 18.6963 20.4218 18.6963 20.7239C18.6963 21.0259 18.9411 21.2708 19.2432 21.2708H22.6156C22.9176 21.2708 23.1624 21.0259 23.1624 20.7239C23.1624 20.4218 22.9176 20.177 22.6155 20.177Z" fill="white"/>
<path d="M23.7163 17.2456L22.124 15.6533C21.9105 15.4398 21.5642 15.4398 21.3506 15.6533C21.137 15.8669 21.137 16.2132 21.3506 16.4268L22.9429 18.019C23.0497 18.1258 23.1896 18.1792 23.3296 18.1792C23.4695 18.1792 23.6095 18.1258 23.7163 18.019C23.9298 17.8054 23.9298 17.4592 23.7163 17.2456Z" fill="white"/>
<path d="M31.4917 15.6543C31.2781 15.4408 30.9318 15.4408 30.7182 15.6543L29.126 17.2465C28.9124 17.4601 28.9124 17.8064 29.126 18.02C29.2328 18.1268 29.3728 18.1802 29.5127 18.1802C29.6527 18.1802 29.7927 18.1268 29.8994 18.02L31.4917 16.4278C31.7052 16.2142 31.7052 15.8679 31.4917 15.6543Z" fill="white"/>
<path d="M35.2803 25.4526C34.9111 25.4526 34.565 25.5524 34.2667 25.7258C34.0181 24.8898 33.2429 24.2781 32.3271 24.2781C31.7451 24.2781 31.2201 24.5254 30.8506 24.9201C30.4811 24.5254 29.956 24.2781 29.374 24.2781C29.039 24.2781 28.723 24.3604 28.4443 24.5052V20.7246C28.4443 19.6089 27.5366 18.7012 26.4209 18.7012C25.3052 18.7012 24.3975 19.6089 24.3975 20.7246V23.6081C24.3975 23.9102 24.6423 24.155 24.9443 24.155C25.2464 24.155 25.4912 23.9102 25.4912 23.6081V20.7246C25.4912 20.212 25.9083 19.7949 26.4209 19.7949C26.9335 19.7949 27.3506 20.212 27.3506 20.7246V29.8797C27.3506 30.1818 27.5954 30.4266 27.8975 30.4266C28.1995 30.4266 28.4443 30.1818 28.4443 29.8797V26.3015C28.4443 25.7889 28.8614 25.3718 29.374 25.3718C29.8867 25.3718 30.3037 25.7889 30.3037 26.3015V26.8293V29.8797C30.3037 30.1818 30.5485 30.4266 30.8506 30.4266C31.1526 30.4266 31.3975 30.1818 31.3975 29.8797V26.8293V26.3015C31.3975 25.7889 31.8145 25.3718 32.3271 25.3718C32.8398 25.3718 33.2568 25.7889 33.2568 26.3015V27.4759V28.4218V29.8798C33.2568 30.1818 33.5017 30.4267 33.8037 30.4267C34.1058 30.4267 34.3506 30.1818 34.3506 29.8798V28.4218V27.4759C34.3506 26.9633 34.7676 26.5463 35.2803 26.5463C35.7929 26.5463 36.21 26.9633 36.21 27.4759V33.1948C36.21 33.6022 36.1733 34.01 36.1008 34.4071C36.0466 34.7043 36.2435 34.989 36.5407 35.0432C36.5739 35.0492 36.6068 35.0522 36.6394 35.0522C36.8985 35.0522 37.1287 34.8673 37.1768 34.6033C37.261 34.1417 37.3037 33.6678 37.3037 33.1948V27.4759C37.3037 26.3603 36.396 25.4526 35.2803 25.4526Z" fill="white"/>
<path d="M34.8494 38.1302C34.6434 37.9093 34.2973 37.8974 34.0765 38.1034C32.8303 39.266 31.2048 39.9062 29.4994 39.9062C26.9408 39.9062 24.5687 38.4175 23.456 36.1136L20.9369 30.8976C20.7097 30.4272 20.8862 29.854 21.3386 29.5928C21.8064 29.3228 22.4154 29.4783 22.6965 29.9394L24.4782 32.8627C24.6058 33.072 24.857 33.1709 25.093 33.1047C25.329 33.0384 25.4921 32.8232 25.4921 32.5781V27.2188C25.4921 26.9167 25.2472 26.6719 24.9452 26.6719C24.6431 26.6719 24.3983 26.9167 24.3983 27.2188V30.63L23.6305 29.3702C23.033 28.3898 21.786 28.0715 20.7917 28.6456C19.8459 29.1917 19.477 30.3898 19.952 31.3732L22.4711 36.5892C23.1102 37.9125 24.1059 39.0249 25.3506 39.806C26.5953 40.5871 28.0299 41 29.4994 41C31.4827 41 33.3732 40.2553 34.8226 38.9031C35.0434 38.6971 35.0555 38.351 34.8494 38.1302Z" fill="white"/>
<path d="M36.2636 36.275C36.1619 36.1733 36.0208 36.1147 35.877 36.1147C35.7331 36.1147 35.592 36.1733 35.4903 36.275C35.3886 36.3767 35.3301 36.5178 35.3301 36.6616C35.3301 36.806 35.3886 36.9465 35.4903 37.0483C35.592 37.15 35.7331 37.2085 35.877 37.2085C36.0208 37.2085 36.1619 37.15 36.2636 37.0483C36.3653 36.9465 36.4238 36.806 36.4238 36.6616C36.4238 36.5178 36.3653 36.3767 36.2636 36.275Z" fill="white"/>
<path d="M25.331 25.0821C25.2293 24.9804 25.0882 24.9219 24.9443 24.9219C24.8005 24.9219 24.6594 24.9804 24.5577 25.0821C24.456 25.1838 24.3975 25.3249 24.3975 25.4688C24.3975 25.6126 24.456 25.7537 24.5577 25.8554C24.6594 25.9571 24.8005 26.0156 24.9443 26.0156C25.0882 26.0156 25.2293 25.9571 25.331 25.8554C25.4327 25.7537 25.4912 25.6126 25.4912 25.4688C25.4912 25.3249 25.4327 25.1838 25.331 25.0821Z" fill="white"/>
</svg>
