<svg width="30" height="27" viewBox="0 0 30 27" fill="none" xmlns="http://www.w3.org/2000/svg">
<path d="M3.56319 22.4897L3.56359 22.4893L14.6725 12.8572L15 12.5731L15.3276 12.8572L26.4364 22.4893L26.4369 22.4897C26.4378 22.4905 26.451 22.5 26.4781 22.5C26.4868 22.5 26.4941 22.499 26.5 22.4977V14.4448L15.0418 4.51067L15.0413 4.51024C15.0404 4.50947 15.0272 4.50003 15.0001 4.5C14.9749 4.49997 14.9616 4.50809 14.959 4.50998C14.9576 4.51117 14.9562 4.51236 14.9548 4.51355L3.5 14.4448L3.56319 22.4897ZM3.56319 22.4897C3.56319 22.4897 3.55996 22.4923 3.55239 22.495M3.56319 22.4897L3.55239 22.495M3.55239 22.495C3.54437 22.4979 3.53377 22.5 3.52164 22.5L3.55239 22.495ZM26.1089 22.8671L15 13.2349L26.1089 22.8671ZM26.1089 22.8671C26.3123 23.044 26.6427 23.0443 26.8467 22.8679M26.1089 22.8671L26.8467 22.8679M26.8467 22.8679C26.9451 22.7828 27.0002 22.6673 27 22.5468L26.8467 22.8679ZM26.5 22.5479C26.5 22.5475 26.5 22.5472 26.5 22.5468L26.5 22.5479Z" fill="white" stroke="white"/>
</svg>
