<svg width="30" height="30" viewBox="0 0 30 30" fill="none" xmlns="http://www.w3.org/2000/svg">
<g clip-path="url(#clip0)">
<path d="M17.3472 20.0968H12.6503C11.8348 20.0968 11.1715 20.7601 11.1715 21.5756V25.3332C11.1715 26.1487 11.8348 26.812 12.6503 26.812H17.3472C18.1628 26.812 18.8261 26.1486 18.8261 25.3332V21.5756C18.8261 20.7601 18.1627 20.0968 17.3472 20.0968ZM17.7472 25.3332C17.7472 25.5537 17.5676 25.7331 17.3472 25.7331H12.6503C12.4299 25.7331 12.2504 25.5536 12.2504 25.3332V21.5757C12.2504 21.3552 12.4299 21.1757 12.6503 21.1757H17.3472C17.5677 21.1757 17.7472 21.3553 17.7472 21.5757V25.3332Z" fill="#A72C93" stroke="#A72C93" stroke-width="0.2"/>
<path d="M25.3334 14.4605H18.7578C18.4599 14.4605 18.2184 14.7021 18.2184 15C18.2184 15.2979 18.4599 15.5395 18.7578 15.5395H25.3334C25.5538 15.5395 25.7333 15.719 25.7333 15.9394V18.7576C25.7333 19.0555 25.9748 19.297 26.2728 19.297C26.5707 19.297 26.8122 19.0555 26.8122 18.7576V15.9394C26.8122 15.1238 26.1489 14.4605 25.3334 14.4605Z" fill="#A72C93" stroke="#A72C93" stroke-width="0.2"/>
<path d="M18.8266 7.01517C18.8266 4.9047 17.1097 3.18784 14.9992 3.18784C12.8888 3.18784 11.1719 4.9047 11.1719 7.01517C11.1719 8.94262 12.604 10.5405 14.4598 10.8036V14.4605H4.66594C3.85039 14.4605 3.18711 15.1239 3.18711 15.9393V18.7575C3.18711 19.0555 3.42864 19.297 3.72656 19.297C4.02449 19.297 4.26602 19.0555 4.26602 18.7575V15.9393C4.26602 15.7189 4.44553 15.5394 4.66594 15.5394H14.4598V18.7575C14.4598 19.0555 14.7013 19.297 14.9992 19.297C15.2972 19.297 15.5387 19.0555 15.5387 18.7575V15.5394H16.878C17.1759 15.5394 17.4174 15.2979 17.4174 15C17.4174 14.702 17.1759 14.4605 16.878 14.4605H15.5387V10.8036C17.3944 10.5405 18.8266 8.94262 18.8266 7.01517ZM14.9992 9.76358C13.4839 9.76358 12.2508 8.53054 12.2508 7.01517C12.2508 5.49979 13.4839 4.26675 14.9992 4.26675C16.5146 4.26675 17.7477 5.49979 17.7477 7.01517C17.7477 8.5306 16.5146 9.76358 14.9992 9.76358Z" fill="#A72C93" stroke="#A72C93" stroke-width="0.2"/>
<path d="M28.6207 20.0968H23.9238C23.1082 20.0968 22.4449 20.7601 22.4449 21.5756V25.3332C22.4449 26.1487 23.1083 26.812 23.9238 26.812H28.6207C29.4363 26.812 30.0995 26.1486 30.0995 25.3332V21.5756C30.0995 20.7601 29.4362 20.0968 28.6207 20.0968ZM29.0206 25.3332C29.0206 25.5537 28.8411 25.7331 28.6207 25.7331H23.9238C23.7033 25.7331 23.5238 25.5536 23.5238 25.3332V21.5757C23.5238 21.3552 23.7034 21.1757 23.9238 21.1757H28.6207C28.8412 21.1757 29.0206 21.3553 29.0206 21.5757V25.3332Z" fill="#A72C93" stroke="#A72C93" stroke-width="0.2"/>
<path d="M6.07576 20.0968H1.37883C0.563343 20.0968 -0.1 20.7601 -0.1 21.5757V25.3332C-0.1 26.1488 0.563349 26.812 1.37883 26.812H1.84852C2.14644 26.812 2.38797 26.5705 2.38797 26.2726C2.38797 25.9747 2.14644 25.7331 1.84852 25.7331H1.37883C1.15838 25.7331 0.978906 25.5536 0.978906 25.3332V21.5757C0.978906 21.3552 1.15842 21.1757 1.37883 21.1757H6.07576C6.29621 21.1757 6.47568 21.3553 6.47568 21.5757V25.3332C6.47568 25.5537 6.29617 25.7331 6.07576 25.7331H3.72727C3.42934 25.7331 3.18781 25.9747 3.18781 26.2726C3.18781 26.5705 3.42934 26.812 3.72727 26.812H6.07576C6.89131 26.812 7.55459 26.1487 7.55459 25.3332V21.5757C7.55459 21.5757 7.55459 21.5757 7.55459 21.5757C7.55465 20.7601 6.8913 20.0968 6.07576 20.0968Z" fill="#A72C93" stroke="#A72C93" stroke-width="0.2"/>
</g>
<defs>
<clipPath id="clip0">
<rect width="30" height="30" fill="white"/>
</clipPath>
</defs>
</svg>
