<svg width="30" height="30" viewBox="0 0 30 30" fill="none" xmlns="http://www.w3.org/2000/svg">
<g clip-path="url(#clip0)">
<path d="M27.8937 12.9189H25.9792V2.805C25.9792 1.64361 25.0346 0.69873 23.8735 0.69873H10.7643C10.4406 0.69873 10.1783 0.961055 10.1783 1.28467C10.1783 1.60828 10.4406 1.87061 10.7643 1.87061H23.8734C24.3884 1.87061 24.8072 2.28979 24.8072 2.805V10.165L21.6933 7.94549C21.4846 7.79672 21.2035 7.80094 20.9992 7.95563L17.5535 10.5672L12.077 6.00305C11.8619 5.82381 11.5502 5.82176 11.3329 5.99801L4.67853 11.3926V2.805C4.67853 2.29125 5.09648 1.87219 5.61023 1.87072C5.93385 1.86979 6.19541 1.60676 6.19453 1.28314C6.19359 0.960117 5.93145 0.698848 5.60859 0.698848C5.60807 0.698848 5.60742 0.698848 5.60689 0.698848C4.44879 0.702129 3.5066 1.64695 3.5066 2.805V14.0409C3.5066 15.202 4.45148 16.1466 5.61287 16.1466H12.3703V17.8349H2.10598C0.944766 17.8348 0 18.7796 0 19.9409V27.1953C0 28.3566 0.944766 29.3013 2.10598 29.3013H13.254C14.4152 29.3013 15.3599 28.3566 15.3599 27.1953V25.1216H22.6559C22.9795 25.1216 23.2418 24.8593 23.2418 24.5357C23.2418 24.2121 22.9795 23.9497 22.6559 23.9497H15.3602V19.9406C15.3602 18.9041 14.5689 17.9957 13.5422 17.8546V15.0251C13.5422 14.5099 13.9611 14.0907 14.4761 14.0907H27.8937C28.4089 14.0907 28.8281 14.5099 28.8281 15.0251V23.0153C28.8281 23.5305 28.4089 23.9497 27.8937 23.9497H27.8075C27.4839 23.9497 27.2215 24.212 27.2215 24.5356C27.2215 24.8592 27.4839 25.1215 27.8075 25.1215H27.8937C29.0551 25.1215 30 24.1767 30 23.0153V15.0251C30 13.8638 29.0551 12.9189 27.8937 12.9189ZM14.1881 27.1952C14.1881 27.7103 13.7691 28.1294 13.254 28.1294H2.10598C1.59088 28.1294 1.17188 27.7103 1.17188 27.1952V19.9409C1.17188 19.4258 1.59094 19.0068 2.10598 19.0068H12.9546C13.1925 19.0068 13.4295 18.9912 13.6514 19.0956C13.9753 19.248 14.1881 19.5831 14.1881 19.9409V27.1952H14.1881ZM14.4761 12.9189C13.3498 12.9189 12.3977 13.8485 12.371 14.9747H5.61293C5.09771 14.9747 4.67853 14.5558 4.67853 14.0408V12.9012L11.6968 7.21166L18.5449 12.9188H14.4761V12.9189ZM20.3755 12.9189L18.4777 11.3373L21.3639 9.14983L24.8073 11.6041V12.9189H20.3755Z" fill="#A72C93"/>
<path d="M8.01965 1.82581C8.25667 1.92454 8.54049 1.85218 8.70093 1.65144C8.8528 1.46136 8.87038 1.19277 8.74628 0.983703C8.47844 0.532707 7.77192 0.656925 7.66926 1.17015C7.615 1.44126 7.76494 1.71958 8.01965 1.82581Z" fill="#A72C93"/>
<path d="M19.4953 22.8696H21.1665C21.421 22.8696 21.6464 22.7053 21.7243 22.4631L22.3184 20.6169L24.8913 21.0267C24.922 21.0316 24.9528 21.0341 24.9835 21.0341C25.1219 21.0341 25.257 20.985 25.3638 20.8938C25.4943 20.7825 25.5694 20.6196 25.5694 20.4481V18.5516H25.6818C26.0054 18.5516 26.2677 18.2893 26.2677 17.9657C26.2677 17.6421 26.0054 17.3797 25.6818 17.3797H25.5694V15.7569C25.5694 15.5854 25.4943 15.4225 25.3638 15.3111C25.2333 15.1998 25.0607 15.1512 24.8913 15.1782L19.4489 16.045H17.9658C17.2653 16.045 16.6953 16.615 16.6953 17.3155V18.8894C16.6953 19.59 17.2653 20.1599 17.9658 20.1599H18.9093V22.2836C18.9093 22.6072 19.1717 22.8696 19.4953 22.8696ZM20.7396 21.6977H20.0812V20.2606L20.1967 20.279L21.1474 20.4304L20.7396 21.6977ZM24.3975 19.7615L20.0812 19.074V17.131L24.3975 16.4435V19.7615ZM17.8672 18.8894V17.3155C17.8672 17.2611 17.9115 17.2169 17.9659 17.2169H18.9094V18.988H17.9658C17.9115 18.988 17.8672 18.9438 17.8672 18.8894Z" fill="#A72C93"/>
<path d="M25.5412 24.0487C25.3329 23.9098 25.0533 23.9209 24.8557 24.074C24.6621 24.224 24.5832 24.4872 24.6598 24.7193C24.8304 25.2371 25.584 25.246 25.7672 24.733C25.8559 24.4842 25.7634 24.1942 25.5412 24.0487Z" fill="#A72C93"/>
<path d="M10.0275 22.9021L6.45281 20.9844C6.06914 20.7786 5.58984 21.0663 5.58984 21.5007V25.5942C5.58984 26.0418 6.09627 26.3286 6.48041 26.0947L10.0551 23.919C10.2346 23.8097 10.3419 23.6126 10.3362 23.4025C10.3305 23.1924 10.2127 23.0015 10.0275 22.9021ZM6.76178 24.5517V22.48L8.57085 23.4505L6.76178 24.5517Z" fill="#A72C93"/>
<path d="M19.5463 5.14813C19.5463 4.039 18.644 3.13672 17.5348 3.13672C16.4257 3.13672 15.5234 4.039 15.5234 5.14813C15.5234 6.25719 16.4257 7.15953 17.5348 7.15953C18.644 7.15953 19.5463 6.25725 19.5463 5.14813ZM16.6953 5.14813C16.6953 4.68524 17.0719 4.30859 17.5348 4.30859C17.9978 4.30859 18.3744 4.68524 18.3744 5.14813C18.3744 5.61102 17.9978 5.98766 17.5348 5.98766C17.0719 5.98766 16.6953 5.61108 16.6953 5.14813Z" fill="#A72C93"/>
</g>
<defs>
<clipPath id="clip0">
<rect width="30" height="30" fill="white"/>
</clipPath>
</defs>
</svg>
