<svg width="20" height="20" viewBox="0 0 20 20" fill="none" xmlns="http://www.w3.org/2000/svg">
<g clip-path="url(#clip0)">
<path d="M19.9479 7.67173C19.8169 7.26675 19.4577 6.97911 19.0328 6.94081L13.2602 6.41666L10.9776 1.07396C10.8093 0.68241 10.426 0.428955 10.0001 0.428955C9.57422 0.428955 9.19091 0.68241 9.0226 1.07488L6.73998 6.41666L0.966514 6.94081C0.542309 6.98003 0.184023 7.26675 0.0523365 7.67173C-0.0793503 8.0767 0.0422654 8.5209 0.363166 8.8009L4.72653 12.6276L3.43987 18.2953C3.34573 18.712 3.50747 19.1428 3.85325 19.3928C4.0391 19.527 4.25655 19.5954 4.47582 19.5954C4.66488 19.5954 4.85242 19.5444 5.02073 19.4437L10.0001 16.4677L14.9776 19.4437C15.3419 19.6628 15.801 19.6429 16.146 19.3928C16.492 19.1421 16.6536 18.7111 16.5594 18.2953L15.2728 12.6276L19.6361 8.80167C19.957 8.5209 20.0796 8.07747 19.9479 7.67173Z" fill="#FFC107"/>
</g>
<defs>
<clipPath id="clip0">
<rect width="20" height="20" fill="white"/>
</clipPath>
</defs>
</svg>
