<svg width="55" height="55" viewBox="0 0 55 55" fill="none" xmlns="http://www.w3.org/2000/svg">
<circle cx="27.5" cy="27.5" r="26.5" fill="#A72C93" stroke="#C583BB" stroke-width="2"/>
<path d="M31 22.5H17.5C16.6716 22.5 16 23.1716 16 24V37.5C16 38.3284 16.6716 39 17.5 39H31C31.8284 39 32.5 38.3284 32.5 37.5V24C32.5 23.1716 31.8284 22.5 31 22.5ZM31 37.5H17.5V24H31V37.5Z" fill="white"/>
<path d="M38.5 15H25C24.1716 15 23.5 15.6716 23.5 16.5V20.25H25V16.5H38.5V30H34.75V31.5H38.5C39.3284 31.5 40 30.8284 40 30V16.5C40 15.6716 39.3284 15 38.5 15Z" fill="white"/>
</svg>
