<svg width="25" height="33" viewBox="0 0 25 33" fill="none" xmlns="http://www.w3.org/2000/svg">
<g clip-path="url(#clip0)">
<path d="M24.9896 8.70117L18.2437 6.76758L16.3162 0H2.82424C1.2275 0 -0.0668945 1.29854 -0.0668945 2.90039V30.0996C-0.0668945 31.7015 1.2275 33 2.82424 33H22.0985C23.6952 33 24.9896 31.7015 24.9896 30.0996V8.70117Z" fill="#5CB054"/>
<path d="M24.9896 8.70117H18.2436C17.1835 8.70117 16.3162 7.83105 16.3162 6.76758V0C16.5667 0 16.8173 0.0966797 16.9907 0.290104L24.7004 8.02448C24.8932 8.19844 24.9896 8.4498 24.9896 8.70117Z" fill="#86CB84"/>
<path d="M18.8333 19H7.16667C6.52181 19 6 18.5527 6 18C6 17.4473 6.52181 17 7.16667 17H18.8333C19.4782 17 20 17.4473 20 18C20 18.5527 19.4782 19 18.8333 19Z" fill="#FFF5F5"/>
<path d="M18.8333 15H7.16667C6.52181 15 6 14.5527 6 14C6 13.4473 6.52181 13 7.16667 13H18.8333C19.4782 13 20 13.4473 20 14C20 14.5527 19.4782 15 18.8333 15Z" fill="#FFF5F5"/>
<path d="M18.8333 23H7.16667C6.52181 23 6 22.5527 6 22C6 21.4473 6.52181 21 7.16667 21H18.8333C19.4782 21 20 21.4473 20 22C20 22.5527 19.4782 23 18.8333 23Z" fill="#FFF5F5"/>
<path d="M18.8333 27H7.16667C6.52181 27 6 26.5527 6 26C6 25.4473 6.52181 25 7.16667 25H18.8333C19.4782 25 20 25.4473 20 26C20 26.5527 19.4782 27 18.8333 27Z" fill="#FFF5F5"/>
<path d="M6 25.8333L6 14.1667C6 13.5218 6.44727 13 7 13C7.55273 13 8 13.5218 8 14.1667L8 25.8333C8 26.4782 7.55273 27 7 27C6.44727 27 6 26.4782 6 25.8333Z" fill="#FFF5F5"/>
<path d="M12 25.8333L12 14.1667C12 13.5218 12.4473 13 13 13C13.5527 13 14 13.5218 14 14.1667L14 25.8333C14 26.4782 13.5527 27 13 27C12.4473 27 12 26.4782 12 25.8333Z" fill="#FFF5F5"/>
<path d="M18 25.8333L18 14.1667C18 13.5218 18.4473 13 19 13C19.5527 13 20 13.5218 20 14.1667L20 25.8333C20 26.4782 19.5527 27 19 27C18.4473 27 18 26.4782 18 25.8333Z" fill="#FFF5F5"/>
</g>
<defs>
<clipPath id="clip0">
<rect width="25" height="33" fill="white"/>
</clipPath>
</defs>
</svg>
