<svg width="25" height="33" viewBox="0 0 25 33" fill="none" xmlns="http://www.w3.org/2000/svg">
<g clip-path="url(#clip0)">
<path d="M24.9895 8.70117L18.2435 6.76758L16.3161 0H2.82412C1.22738 0 -0.0670166 1.29854 -0.0670166 2.90039V30.0996C-0.0670166 31.7015 1.22738 33 2.82412 33H22.0984C23.6951 33 24.9895 31.7015 24.9895 30.0996V8.70117Z" fill="#FABE2C"/>
<path d="M24.9896 8.70117H18.2436C17.1835 8.70117 16.3162 7.83105 16.3162 6.76758V0C16.5667 0 16.8173 0.0966797 16.9907 0.290104L24.7004 8.02448C24.8932 8.19844 24.9896 8.4498 24.9896 8.70117Z" fill="#FDD929"/>
<path d="M18.2435 26.168H6.67892C6.14625 26.168 5.71521 25.7356 5.71521 25.2012V15.5332C5.71521 14.9988 6.14625 14.5664 6.67892 14.5664H18.2435C18.7762 14.5664 19.2072 14.9988 19.2072 15.5332V25.2012C19.2072 25.7356 18.7762 26.168 18.2435 26.168ZM7.64264 23.2676H17.2798V17.4668H7.64264V23.2676Z" fill="#FFF5F5"/>
</g>
<defs>
<clipPath id="clip0">
<rect width="25" height="33" fill="white"/>
</clipPath>
</defs>
</svg>
