<svg width="15" height="15" viewBox="0 0 15 15" fill="none" xmlns="http://www.w3.org/2000/svg">
<g clip-path="url(#clip0)">
<path d="M0.746839 14.9042C0.808164 14.9657 0.891469 15.0002 0.97829 15H6.84785C6.9344 15.0002 7.01746 14.9659 7.07872 14.9048M0.746839 14.9042L0.977708 14.6739L0.977717 14.6739L0.978002 14.6736L0.97829 14.6734L1.10086 14.5511C1.16848 14.6189 1.16857 14.7287 1.10096 14.7966L1.39759 14.5M0.746839 14.9042C0.619666 14.7767 0.61991 14.5702 0.74742 14.443L0.97829 14.5M0.746839 14.9042L0.977691 14.6739L0.977717 14.6739L0.977985 14.6736L0.97829 14.6733L1.10083 14.5511C1.06836 14.5185 1.0243 14.5002 0.97829 14.5M1.39759 14.5H6.77639M1.39759 14.5L8.04465 7.85359L8.39825 7.50002L8.04465 7.14645L1.39759 0.500001H6.77639L13.7764 7.49999L6.77639 14.5M1.39759 14.5H6.84785M6.77639 14.5L6.72552 14.5509M6.77639 14.5H6.84785M6.72552 14.5509L6.72517 14.5512L6.84785 14.6739L6.84842 14.6745L7.07872 14.9048M6.72552 14.5509C6.75809 14.5184 6.80209 14.5002 6.84785 14.5M6.72552 14.5509L6.84785 14.6734L6.84843 14.674L7.07872 14.9048M7.07872 14.9048L6.84785 14.5M6.84785 14.5H6.84873H6.84785ZM0.97829 14.5L0.977411 14.5C0.977704 14.5 0.977997 14.5 0.97829 14.5ZM0.977356 0.500001H0.97829C0.977979 0.500002 0.977667 0.5 0.977356 0.5V0.500001ZM6.84873 0.5C6.84844 0.5 6.84815 0.500002 6.84785 0.500001L6.84873 0.5Z" fill="white" stroke=""/>
</g>
<defs>
<clipPath id="clip0">
<rect width="15" height="15" fill="white"/>
</clipPath>
</defs>
</svg>
