<svg width="30" height="30" viewBox="0 0 30 30" fill="none" xmlns="http://www.w3.org/2000/svg">
<path d="M2.47654 16.3753C2.37005 16.3753 2.26792 16.4176 2.19262 16.4929C2.11731 16.5682 2.075 16.6704 2.075 16.7769C2.075 16.8834 2.11731 16.9855 2.19262 17.0608C2.26792 17.1361 2.37006 17.1784 2.47656 17.1784H2.48201L2.48207 17.1784C2.53469 17.1784 2.58677 17.1679 2.63533 17.1476C2.68389 17.1274 2.72797 17.0977 2.76503 17.0604C2.80209 17.023 2.8314 16.9787 2.85128 16.93C2.87117 16.8813 2.88122 16.8291 2.88088 16.7765L2.88088 16.7765C2.88016 16.6698 2.83722 16.5677 2.76145 16.4925C2.68569 16.4173 2.58326 16.3752 2.47654 16.3753ZM2.47654 16.3753C2.47653 16.3753 2.47652 16.3753 2.47651 16.3753L2.47656 16.4253V16.3753C2.47655 16.3753 2.47655 16.3753 2.47654 16.3753Z" fill="#A72C93" stroke="#A72C93" stroke-width="0.1"/>
<path d="M4.01002 26.5979C4.3247 26.5979 4.5798 26.3428 4.5798 26.0281C4.5798 25.7134 4.3247 25.4583 4.01002 25.4583C3.69533 25.4583 3.44023 25.7134 3.44023 26.0281C3.44023 26.3428 3.69533 26.5979 4.01002 26.5979Z" fill="#A72C93" stroke="#A72C93" stroke-width="0.1"/>
<path d="M25.0141 25.7515H24.1621C24.0556 25.7515 23.9535 25.7938 23.8782 25.8691C23.8029 25.9444 23.7605 26.0466 23.7605 26.1531C23.7605 26.2596 23.8029 26.3617 23.8782 26.437C23.9535 26.5123 24.0556 26.5546 24.1621 26.5546H25.0141C25.1206 26.5546 25.2228 26.5123 25.2981 26.437C25.3734 26.3617 25.4157 26.2596 25.4157 26.1531C25.4157 26.0466 25.3734 25.9444 25.2981 25.8691C25.2228 25.7938 25.1206 25.7515 25.0141 25.7515Z" fill="#A72C93" stroke="#A72C93" stroke-width="0.1"/>
<path d="M28.1633 16.0625H21.0137C20.9072 16.0625 20.805 16.1049 20.7297 16.1802C20.6544 16.2555 20.6121 16.3576 20.6121 16.4641V18.5487C20.6121 18.6552 20.6544 18.7573 20.7297 18.8326C20.805 18.908 20.9072 18.9503 21.0137 18.9503C21.1202 18.9503 21.2223 18.908 21.2976 18.8326C21.3729 18.7573 21.4152 18.6552 21.4152 18.5487V16.8657H27.7618V24.7985H21.4152V20.8925C21.4152 20.786 21.3729 20.6838 21.2976 20.6085C21.2223 20.5332 21.1202 20.4909 21.0137 20.4909C20.9072 20.4909 20.805 20.5332 20.7297 20.6085C20.6544 20.6838 20.6121 20.786 20.6121 20.8925V25.2C20.6121 25.3065 20.6544 25.4087 20.7297 25.484C20.805 25.5593 20.9072 25.6016 21.0137 25.6016H28.1633C28.2698 25.6016 28.372 25.5593 28.4473 25.484C28.5226 25.4087 28.5649 25.3065 28.5649 25.2V16.4641C28.5649 16.3576 28.5226 16.2555 28.4473 16.1802C28.372 16.1049 28.2698 16.0625 28.1633 16.0625Z" fill="#A72C93" stroke="#A72C93" stroke-width="0.1"/>
<path d="M13.0145 17.6735L13.0145 17.6736C13.0147 17.9078 13.1079 18.1322 13.2735 18.2978C13.4391 18.4634 13.6636 18.5565 13.8977 18.5567H13.8978C14.0725 18.5567 14.2432 18.5049 14.3884 18.4078C14.5337 18.3108 14.6468 18.1728 14.7137 18.0114C14.7805 17.85 14.798 17.6725 14.7639 17.5012C14.7298 17.3298 14.6457 17.1725 14.5221 17.049C14.3986 16.9255 14.2412 16.8414 14.0699 16.8073C13.8986 16.7732 13.721 16.7907 13.5596 16.8576C13.3983 16.9244 13.2603 17.0376 13.1633 17.1829C13.0662 17.3281 13.0145 17.4989 13.0145 17.6735Z" fill="#A72C93" stroke="#A72C93" stroke-width="0.1"/>
<path d="M13.5288 21.3694H13.5059C13.3994 21.3694 13.2972 21.4117 13.2219 21.487C13.1466 21.5624 13.1043 21.6645 13.1043 21.771C13.1043 21.8775 13.1466 21.9796 13.2219 22.0549C13.2972 22.1303 13.3994 22.1726 13.5059 22.1726H13.5288C13.6353 22.1726 13.7374 22.1303 13.8127 22.0549C13.888 21.9796 13.9303 21.8775 13.9303 21.771C13.9303 21.6645 13.888 21.5624 13.8127 21.487C13.7374 21.4117 13.6353 21.3694 13.5288 21.3694Z" fill="#A72C93" stroke="#A72C93" stroke-width="0.1"/>
<mask id="path-7-outside-1" maskUnits="userSpaceOnUse" x="-0.707031" y="1.34375" width="31" height="27" fill="black">
<rect fill="white" x="-0.707031" y="1.34375" width="31" height="27"/>
<path d="M28.5611 14.8022H25.3037V3.65854C25.3033 3.30992 25.1646 2.9757 24.918 2.72922C24.6715 2.48273 24.3373 2.34411 23.9886 2.34375H4.09418C3.74556 2.34411 3.41132 2.48273 3.16478 2.72922C2.91824 2.9757 2.77954 3.30992 2.7791 3.65854V14.7286H1.54172C1.21067 14.729 0.893279 14.8606 0.659175 15.0947C0.425071 15.3287 0.293372 15.6461 0.292969 15.9772V26.4077C0.293387 26.7388 0.425094 27.0561 0.659196 27.2902C0.893298 27.5242 1.21068 27.6559 1.54172 27.6562H6.47643C6.80748 27.6559 7.12487 27.5243 7.35899 27.2902C7.5931 27.0561 7.72482 26.7388 7.72523 26.4077V19.7109H10.8968V20.8079C10.8966 20.9701 10.832 21.1256 10.7173 21.2403C10.6026 21.3549 10.4471 21.4194 10.2848 21.4196C9.80853 21.4201 9.35186 21.6095 9.01502 21.9463C8.67817 22.2831 8.48864 22.7397 8.48801 23.216C8.48801 23.3093 8.52505 23.3987 8.59098 23.4646C8.65691 23.5305 8.74633 23.5676 8.83957 23.5676H18.9565C19.0498 23.5676 19.1392 23.5305 19.2051 23.4646C19.2711 23.3987 19.3081 23.3093 19.3081 23.216C19.3075 22.7547 19.1296 22.3113 18.8113 21.9774C18.493 21.6435 18.0586 21.4446 17.5979 21.4219C17.5851 21.4205 17.5723 21.4197 17.5594 21.4197H17.5113C17.3491 21.4196 17.1935 21.3551 17.0788 21.2404C16.9641 21.1257 16.8995 20.9702 16.8993 20.808V19.7109H19.471V26.5105C19.4714 26.8143 19.5922 27.1056 19.8071 27.3204C20.0219 27.5352 20.3132 27.656 20.617 27.6562H28.5611C28.8648 27.6559 29.1561 27.5351 29.371 27.3203C29.5858 27.1055 29.7067 26.8143 29.707 26.5105V15.948C29.7067 15.6442 29.5858 15.353 29.371 15.1382C29.1561 14.9234 28.8648 14.8026 28.5611 14.8022ZM7.02199 26.4077C7.02179 26.5523 6.96424 26.691 6.86197 26.7932C6.75969 26.8955 6.62104 26.953 6.47643 26.9531H1.54172C1.39709 26.953 1.25843 26.8955 1.15614 26.7932C1.05385 26.691 0.996295 26.5524 0.996094 26.4077V25.2177H7.02211L7.02199 26.4077ZM7.02199 16.4252H3.50859C3.41535 16.4252 3.32593 16.4622 3.26 16.5281C3.19407 16.5941 3.15703 16.6835 3.15703 16.7767C3.15703 16.87 3.19407 16.9594 3.26 17.0253C3.32593 17.0913 3.41535 17.1283 3.50859 17.1283H7.02211V24.5146H0.996094V17.1283H1.46584C1.55908 17.1283 1.6485 17.0913 1.71443 17.0253C1.78036 16.9594 1.8174 16.87 1.8174 16.7767C1.8174 16.6835 1.78036 16.5941 1.71443 16.5281C1.6485 16.4622 1.55908 16.4252 1.46584 16.4252H0.996094V15.9772C0.99628 15.8325 1.05383 15.6939 1.15612 15.5916C1.25841 15.4894 1.39708 15.4319 1.54172 15.4317H6.47643C6.62107 15.4319 6.75975 15.4894 6.86205 15.5916C6.96434 15.6939 7.02191 15.8325 7.02211 15.9772L7.02199 16.4252ZM17.5112 22.1226C17.7396 22.1229 17.9622 22.1945 18.1479 22.3275C18.3336 22.4605 18.4731 22.6482 18.5469 22.8643H9.24908C9.32287 22.6482 9.46238 22.4605 9.64809 22.3275C9.8338 22.1945 10.0564 22.1228 10.2848 22.1226C10.6335 22.1222 10.9677 21.9836 11.2143 21.7371C11.4608 21.4906 11.5995 21.1564 11.5999 20.8078V19.7109H16.1962V20.8079C16.196 21.021 16.248 21.231 16.3477 21.4195H14.7311C14.6379 21.4195 14.5485 21.4565 14.4825 21.5224C14.4166 21.5884 14.3796 21.6778 14.3796 21.771C14.3796 21.8643 14.4166 21.9537 14.4825 22.0196C14.5485 22.0856 14.6379 22.1226 14.7311 22.1226H17.5112ZM19.5151 15.6363H11.3167C11.2234 15.6363 11.134 15.6733 11.0681 15.7392C11.0022 15.8052 10.9651 15.8946 10.9651 15.9878C10.9651 16.0811 11.0022 16.1705 11.0681 16.2364C11.134 16.3024 11.2234 16.3394 11.3167 16.3394H19.471V19.0078H7.72523V16.3395H8.97293C9.06617 16.3395 9.15559 16.3025 9.22152 16.2365C9.28745 16.1706 9.32449 16.0812 9.32449 15.9879C9.32449 15.8947 9.28745 15.8053 9.22152 15.7394C9.15559 15.6734 9.06617 15.6364 8.97293 15.6364H7.67678C7.60243 15.3752 7.44508 15.1454 7.22851 14.9816C7.01195 14.8178 6.74795 14.729 6.47643 14.7286H3.48223V3.65854C3.48246 3.49633 3.54702 3.34085 3.66174 3.22618C3.77646 3.11151 3.93198 3.04703 4.09418 3.04688H23.9886C24.1508 3.04703 24.3064 3.11151 24.4211 3.22618C24.5358 3.34085 24.6004 3.49633 24.6006 3.65854V14.8022H20.617C20.3676 14.8027 20.1252 14.8843 19.9264 15.0348C19.7276 15.1853 19.5832 15.3965 19.5152 15.6364L19.5151 15.6363ZM29.0039 26.5105C29.0038 26.6279 28.957 26.7404 28.874 26.8234C28.791 26.9064 28.6784 26.953 28.5611 26.9531H20.617C20.4996 26.953 20.387 26.9064 20.304 26.8234C20.221 26.7404 20.1743 26.6279 20.1741 26.5105V15.948C20.1743 15.8306 20.221 15.7181 20.304 15.6351C20.387 15.5521 20.4996 15.5055 20.617 15.5054H28.5611C28.6784 15.5055 28.791 15.5521 28.874 15.6351C28.957 15.7181 29.0038 15.8306 29.0039 15.948V26.5105Z"/>
</mask>
<path d="M28.5611 14.8022H25.3037V3.65854C25.3033 3.30992 25.1646 2.9757 24.918 2.72922C24.6715 2.48273 24.3373 2.34411 23.9886 2.34375H4.09418C3.74556 2.34411 3.41132 2.48273 3.16478 2.72922C2.91824 2.9757 2.77954 3.30992 2.7791 3.65854V14.7286H1.54172C1.21067 14.729 0.893279 14.8606 0.659175 15.0947C0.425071 15.3287 0.293372 15.6461 0.292969 15.9772V26.4077C0.293387 26.7388 0.425094 27.0561 0.659196 27.2902C0.893298 27.5242 1.21068 27.6559 1.54172 27.6562H6.47643C6.80748 27.6559 7.12487 27.5243 7.35899 27.2902C7.5931 27.0561 7.72482 26.7388 7.72523 26.4077V19.7109H10.8968V20.8079C10.8966 20.9701 10.832 21.1256 10.7173 21.2403C10.6026 21.3549 10.4471 21.4194 10.2848 21.4196C9.80853 21.4201 9.35186 21.6095 9.01502 21.9463C8.67817 22.2831 8.48864 22.7397 8.48801 23.216C8.48801 23.3093 8.52505 23.3987 8.59098 23.4646C8.65691 23.5305 8.74633 23.5676 8.83957 23.5676H18.9565C19.0498 23.5676 19.1392 23.5305 19.2051 23.4646C19.2711 23.3987 19.3081 23.3093 19.3081 23.216C19.3075 22.7547 19.1296 22.3113 18.8113 21.9774C18.493 21.6435 18.0586 21.4446 17.5979 21.4219C17.5851 21.4205 17.5723 21.4197 17.5594 21.4197H17.5113C17.3491 21.4196 17.1935 21.3551 17.0788 21.2404C16.9641 21.1257 16.8995 20.9702 16.8993 20.808V19.7109H19.471V26.5105C19.4714 26.8143 19.5922 27.1056 19.8071 27.3204C20.0219 27.5352 20.3132 27.656 20.617 27.6562H28.5611C28.8648 27.6559 29.1561 27.5351 29.371 27.3203C29.5858 27.1055 29.7067 26.8143 29.707 26.5105V15.948C29.7067 15.6442 29.5858 15.353 29.371 15.1382C29.1561 14.9234 28.8648 14.8026 28.5611 14.8022ZM7.02199 26.4077C7.02179 26.5523 6.96424 26.691 6.86197 26.7932C6.75969 26.8955 6.62104 26.953 6.47643 26.9531H1.54172C1.39709 26.953 1.25843 26.8955 1.15614 26.7932C1.05385 26.691 0.996295 26.5524 0.996094 26.4077V25.2177H7.02211L7.02199 26.4077ZM7.02199 16.4252H3.50859C3.41535 16.4252 3.32593 16.4622 3.26 16.5281C3.19407 16.5941 3.15703 16.6835 3.15703 16.7767C3.15703 16.87 3.19407 16.9594 3.26 17.0253C3.32593 17.0913 3.41535 17.1283 3.50859 17.1283H7.02211V24.5146H0.996094V17.1283H1.46584C1.55908 17.1283 1.6485 17.0913 1.71443 17.0253C1.78036 16.9594 1.8174 16.87 1.8174 16.7767C1.8174 16.6835 1.78036 16.5941 1.71443 16.5281C1.6485 16.4622 1.55908 16.4252 1.46584 16.4252H0.996094V15.9772C0.99628 15.8325 1.05383 15.6939 1.15612 15.5916C1.25841 15.4894 1.39708 15.4319 1.54172 15.4317H6.47643C6.62107 15.4319 6.75975 15.4894 6.86205 15.5916C6.96434 15.6939 7.02191 15.8325 7.02211 15.9772L7.02199 16.4252ZM17.5112 22.1226C17.7396 22.1229 17.9622 22.1945 18.1479 22.3275C18.3336 22.4605 18.4731 22.6482 18.5469 22.8643H9.24908C9.32287 22.6482 9.46238 22.4605 9.64809 22.3275C9.8338 22.1945 10.0564 22.1228 10.2848 22.1226C10.6335 22.1222 10.9677 21.9836 11.2143 21.7371C11.4608 21.4906 11.5995 21.1564 11.5999 20.8078V19.7109H16.1962V20.8079C16.196 21.021 16.248 21.231 16.3477 21.4195H14.7311C14.6379 21.4195 14.5485 21.4565 14.4825 21.5224C14.4166 21.5884 14.3796 21.6778 14.3796 21.771C14.3796 21.8643 14.4166 21.9537 14.4825 22.0196C14.5485 22.0856 14.6379 22.1226 14.7311 22.1226H17.5112ZM19.5151 15.6363H11.3167C11.2234 15.6363 11.134 15.6733 11.0681 15.7392C11.0022 15.8052 10.9651 15.8946 10.9651 15.9878C10.9651 16.0811 11.0022 16.1705 11.0681 16.2364C11.134 16.3024 11.2234 16.3394 11.3167 16.3394H19.471V19.0078H7.72523V16.3395H8.97293C9.06617 16.3395 9.15559 16.3025 9.22152 16.2365C9.28745 16.1706 9.32449 16.0812 9.32449 15.9879C9.32449 15.8947 9.28745 15.8053 9.22152 15.7394C9.15559 15.6734 9.06617 15.6364 8.97293 15.6364H7.67678C7.60243 15.3752 7.44508 15.1454 7.22851 14.9816C7.01195 14.8178 6.74795 14.729 6.47643 14.7286H3.48223V3.65854C3.48246 3.49633 3.54702 3.34085 3.66174 3.22618C3.77646 3.11151 3.93198 3.04703 4.09418 3.04688H23.9886C24.1508 3.04703 24.3064 3.11151 24.4211 3.22618C24.5358 3.34085 24.6004 3.49633 24.6006 3.65854V14.8022H20.617C20.3676 14.8027 20.1252 14.8843 19.9264 15.0348C19.7276 15.1853 19.5832 15.3965 19.5152 15.6364L19.5151 15.6363ZM29.0039 26.5105C29.0038 26.6279 28.957 26.7404 28.874 26.8234C28.791 26.9064 28.6784 26.953 28.5611 26.9531H20.617C20.4996 26.953 20.387 26.9064 20.304 26.8234C20.221 26.7404 20.1743 26.6279 20.1741 26.5105V15.948C20.1743 15.8306 20.221 15.7181 20.304 15.6351C20.387 15.5521 20.4996 15.5055 20.617 15.5054H28.5611C28.6784 15.5055 28.791 15.5521 28.874 15.6351C28.957 15.7181 29.0038 15.8306 29.0039 15.948V26.5105Z" fill="#A72C93"/>
<path d="M28.5611 14.8022H25.3037V3.65854C25.3033 3.30992 25.1646 2.9757 24.918 2.72922C24.6715 2.48273 24.3373 2.34411 23.9886 2.34375H4.09418C3.74556 2.34411 3.41132 2.48273 3.16478 2.72922C2.91824 2.9757 2.77954 3.30992 2.7791 3.65854V14.7286H1.54172C1.21067 14.729 0.893279 14.8606 0.659175 15.0947C0.425071 15.3287 0.293372 15.6461 0.292969 15.9772V26.4077C0.293387 26.7388 0.425094 27.0561 0.659196 27.2902C0.893298 27.5242 1.21068 27.6559 1.54172 27.6562H6.47643C6.80748 27.6559 7.12487 27.5243 7.35899 27.2902C7.5931 27.0561 7.72482 26.7388 7.72523 26.4077V19.7109H10.8968V20.8079C10.8966 20.9701 10.832 21.1256 10.7173 21.2403C10.6026 21.3549 10.4471 21.4194 10.2848 21.4196C9.80853 21.4201 9.35186 21.6095 9.01502 21.9463C8.67817 22.2831 8.48864 22.7397 8.48801 23.216C8.48801 23.3093 8.52505 23.3987 8.59098 23.4646C8.65691 23.5305 8.74633 23.5676 8.83957 23.5676H18.9565C19.0498 23.5676 19.1392 23.5305 19.2051 23.4646C19.2711 23.3987 19.3081 23.3093 19.3081 23.216C19.3075 22.7547 19.1296 22.3113 18.8113 21.9774C18.493 21.6435 18.0586 21.4446 17.5979 21.4219C17.5851 21.4205 17.5723 21.4197 17.5594 21.4197H17.5113C17.3491 21.4196 17.1935 21.3551 17.0788 21.2404C16.9641 21.1257 16.8995 20.9702 16.8993 20.808V19.7109H19.471V26.5105C19.4714 26.8143 19.5922 27.1056 19.8071 27.3204C20.0219 27.5352 20.3132 27.656 20.617 27.6562H28.5611C28.8648 27.6559 29.1561 27.5351 29.371 27.3203C29.5858 27.1055 29.7067 26.8143 29.707 26.5105V15.948C29.7067 15.6442 29.5858 15.353 29.371 15.1382C29.1561 14.9234 28.8648 14.8026 28.5611 14.8022ZM7.02199 26.4077C7.02179 26.5523 6.96424 26.691 6.86197 26.7932C6.75969 26.8955 6.62104 26.953 6.47643 26.9531H1.54172C1.39709 26.953 1.25843 26.8955 1.15614 26.7932C1.05385 26.691 0.996295 26.5524 0.996094 26.4077V25.2177H7.02211L7.02199 26.4077ZM7.02199 16.4252H3.50859C3.41535 16.4252 3.32593 16.4622 3.26 16.5281C3.19407 16.5941 3.15703 16.6835 3.15703 16.7767C3.15703 16.87 3.19407 16.9594 3.26 17.0253C3.32593 17.0913 3.41535 17.1283 3.50859 17.1283H7.02211V24.5146H0.996094V17.1283H1.46584C1.55908 17.1283 1.6485 17.0913 1.71443 17.0253C1.78036 16.9594 1.8174 16.87 1.8174 16.7767C1.8174 16.6835 1.78036 16.5941 1.71443 16.5281C1.6485 16.4622 1.55908 16.4252 1.46584 16.4252H0.996094V15.9772C0.99628 15.8325 1.05383 15.6939 1.15612 15.5916C1.25841 15.4894 1.39708 15.4319 1.54172 15.4317H6.47643C6.62107 15.4319 6.75975 15.4894 6.86205 15.5916C6.96434 15.6939 7.02191 15.8325 7.02211 15.9772L7.02199 16.4252ZM17.5112 22.1226C17.7396 22.1229 17.9622 22.1945 18.1479 22.3275C18.3336 22.4605 18.4731 22.6482 18.5469 22.8643H9.24908C9.32287 22.6482 9.46238 22.4605 9.64809 22.3275C9.8338 22.1945 10.0564 22.1228 10.2848 22.1226C10.6335 22.1222 10.9677 21.9836 11.2143 21.7371C11.4608 21.4906 11.5995 21.1564 11.5999 20.8078V19.7109H16.1962V20.8079C16.196 21.021 16.248 21.231 16.3477 21.4195H14.7311C14.6379 21.4195 14.5485 21.4565 14.4825 21.5224C14.4166 21.5884 14.3796 21.6778 14.3796 21.771C14.3796 21.8643 14.4166 21.9537 14.4825 22.0196C14.5485 22.0856 14.6379 22.1226 14.7311 22.1226H17.5112ZM19.5151 15.6363H11.3167C11.2234 15.6363 11.134 15.6733 11.0681 15.7392C11.0022 15.8052 10.9651 15.8946 10.9651 15.9878C10.9651 16.0811 11.0022 16.1705 11.0681 16.2364C11.134 16.3024 11.2234 16.3394 11.3167 16.3394H19.471V19.0078H7.72523V16.3395H8.97293C9.06617 16.3395 9.15559 16.3025 9.22152 16.2365C9.28745 16.1706 9.32449 16.0812 9.32449 15.9879C9.32449 15.8947 9.28745 15.8053 9.22152 15.7394C9.15559 15.6734 9.06617 15.6364 8.97293 15.6364H7.67678C7.60243 15.3752 7.44508 15.1454 7.22851 14.9816C7.01195 14.8178 6.74795 14.729 6.47643 14.7286H3.48223V3.65854C3.48246 3.49633 3.54702 3.34085 3.66174 3.22618C3.77646 3.11151 3.93198 3.04703 4.09418 3.04688H23.9886C24.1508 3.04703 24.3064 3.11151 24.4211 3.22618C24.5358 3.34085 24.6004 3.49633 24.6006 3.65854V14.8022H20.617C20.3676 14.8027 20.1252 14.8843 19.9264 15.0348C19.7276 15.1853 19.5832 15.3965 19.5152 15.6364L19.5151 15.6363ZM29.0039 26.5105C29.0038 26.6279 28.957 26.7404 28.874 26.8234C28.791 26.9064 28.6784 26.953 28.5611 26.9531H20.617C20.4996 26.953 20.387 26.9064 20.304 26.8234C20.221 26.7404 20.1743 26.6279 20.1741 26.5105V15.948C20.1743 15.8306 20.221 15.7181 20.304 15.6351C20.387 15.5521 20.4996 15.5055 20.617 15.5054H28.5611C28.6784 15.5055 28.791 15.5521 28.874 15.6351C28.957 15.7181 29.0038 15.8306 29.0039 15.948V26.5105Z" stroke="#A72C93" stroke-width="0.2" mask="url(#path-7-outside-1)"/>
</svg>
