<svg width="21" height="21" viewBox="0 0 21 21" fill="none" xmlns="http://www.w3.org/2000/svg">
<path d="M20.3286 19.1277L15.3306 13.9295C16.6157 12.4018 17.3198 10.4797 17.3198 8.47874C17.3198 3.80364 13.5162 0 8.84105 0C4.16594 0 0.362305 3.80364 0.362305 8.47874C0.362305 13.1538 4.16594 16.9575 8.84105 16.9575C10.5961 16.9575 12.2687 16.4281 13.6986 15.4232L18.7346 20.6609C18.9451 20.8795 19.2282 21 19.5316 21C19.8188 21 20.0912 20.8905 20.298 20.6914C20.7375 20.2686 20.7515 19.5675 20.3286 19.1277ZM8.84105 2.21185C12.2967 2.21185 15.1079 5.0231 15.1079 8.47874C15.1079 11.9344 12.2967 14.7456 8.84105 14.7456C5.38541 14.7456 2.57415 11.9344 2.57415 8.47874C2.57415 5.0231 5.38541 2.21185 8.84105 2.21185Z" fill="#271AC0"/>
</svg>
